<svg id="Layer_1" data-name="Layer 1" xmlns="http://www.w3.org/2000/svg" viewBox="0 0 1200.43 643"><defs><style>.cls-1{fill:#7cad3e;}</style></defs><path d="M.22,243.21v-7.27L6.8,234.2c4.61-1.38,7.62-3.46,9-6.23s2.2-6.58,2.43-11.43q.35-19.75.35-40V81.42q0-20.08-.35-40.19Q17.88,34,16.15,30T7.84,23.91L.22,21.49V14.21H166.86l2.42,58.55h-9.35l-18-34.3a35.45,35.45,0,0,0-7.63-10.22q-4.15-3.63-12.12-3.64H68.81q-.34,23.22-.51,47.64t-.18,48.67h33.26q8,0,11.78-3.63a39.46,39.46,0,0,0,7.27-10.23l6.93-12.81H135v63.39h-7.62l-6.93-12.47A47.72,47.72,0,0,0,113,134.6Q109.35,131,101.38,131H68.12v43.83q0,21,.35,41.05,0,14.22,12.82,17.67l10.39,2.43v7.27Z"/><path d="M174.83,243.21v-6.58L180,234.9q6.93-1.74,9.53-5.9c1.73-2.77,2.6-6.45,2.6-11.08V116.41q-.35-7.62-2.77-11.61T180,99.44l-5.19-1.39V91.81l56.47-20.1,4.16,3.82L238.58,106v2.42a81.78,81.78,0,0,1,13.16-18,73.51,73.51,0,0,1,17.32-13.5,38.22,38.22,0,0,1,18.71-5.21q13.17,0,19.75,6.94t6.58,17.66q0,11.79-6.58,17.85a22.69,22.69,0,0,1-15.94,6.06q-13.86,0-23.9-12.47l-.7-.7q-3.47-4.15-7.79-4.67t-8.49,4.33a46.58,46.58,0,0,0-6.41,8.14,63.37,63.37,0,0,0-5.37,10.91v90.78a19.88,19.88,0,0,0,2.77,10.91q2.77,4.34,9.36,6.06l10.39,3.12v6.58Z"/><path d="M407,71.71q21.82,0,37.42,9a62.16,62.16,0,0,1,24.08,24.77q8.48,15.77,8.48,36.2,0,4.52-.34,8.49a36.91,36.91,0,0,1-1.39,7.44H370.92q.34,35.7,13.34,51.28t37.93,15.59q17.32,0,28.07-5.71A69.69,69.69,0,0,0,470,202.68l5.54,5.19a75.77,75.77,0,0,1-28.24,29.63q-17.85,10.56-42.44,10.57t-43.31-10.4a73.2,73.2,0,0,1-29.27-30q-10.57-19.57-10.57-46.94,0-28.41,12.3-48.16A86,86,0,0,1,407,71.71Zm-1.73,10.05a27.94,27.94,0,0,0-17.5,5.72q-7.46,5.72-11.78,20.1t-5,40.36h62q3.82-35-2.77-50.58T405.22,81.76Z"/><path d="M554.54,248.07a114.14,114.14,0,0,1-30-3.64A118.3,118.3,0,0,1,499.1,234.2V193.32h9.36l10.39,19.75q6.58,12.83,15.07,19.06t21.65,6.23q16.29,0,26-7.1a22.6,22.6,0,0,0,9.7-19.23q0-11.09-7.28-18T558,181.2l-15.24-4.86q-20.44-6.22-32.4-18.88t-11.95-31.7a48.93,48.93,0,0,1,8-27.19q8-12.3,23.21-19.58t37.07-7.28A98.5,98.5,0,0,1,592.82,75a121.3,121.3,0,0,1,23.38,9.18l-2.07,37.07h-9l-10.74-19.74q-5.55-11.08-11.26-15.43t-17.5-4.33a38.51,38.51,0,0,0-22,6.41A20.35,20.35,0,0,0,534.1,106a21.85,21.85,0,0,0,8,17.49q8,6.75,25.64,12.65l14.9,4.5q25.29,8,36,21.13t10.74,31.53q0,24.6-19.57,39.67T554.54,248.07Z"/><path d="M640.81,243.21v-6.93l4.5-1.38q12.47-3.81,12.47-17.33V39.15q0-7.28-2.43-10.91T646,22.87l-5.19-1.38V14.9L699.35,0l5.55,3.12L703.51,52V96.31A141.7,141.7,0,0,1,730,79a67.81,67.81,0,0,1,31-7.28q22.88,0,35.86,12.83t13,39.49v93.89c0,4.63.92,8.31,2.78,11.08s5.07,4.86,9.7,6.24l3.11,1v6.93h-79v-6.93l4.16-1.38q12.47-3.47,12.47-17.33V117.45q0-14.2-4.85-19.75t-17-5.54a54.31,54.31,0,0,0-17.49,3.12,73.8,73.8,0,0,0-19.23,10.39V218.26c0,4.63.92,8.32,2.77,11.1s5,4.73,9.36,5.88l3.12,1v6.93Z"/><path d="M0,563v-7.28l6.93-2.42c4.15-1.16,7-3.17,8.66-6.07s2.54-6.86,2.77-11.94V361q-.34-7.26-2.42-11.25t-8.66-6.07L0,341.24V334H164.91l2.42,55.43h-9.7l-13.85-31.19A33.93,33.93,0,0,0,137.54,348q-3.47-3.63-10.39-3.64H68.25q-.34,21.5-.35,44.18v51.1h34.3q6.93,0,10.57-3.64a37.93,37.93,0,0,0,6.76-9.87L125.41,413H133v64.1h-7.62l-6.23-13.17a37.59,37.59,0,0,0-6.24-10Q109.48,450,102.55,450H67.9v43q0,18,.18,32t.17,27.55h66.52c4.61,0,8.2-1.22,10.74-3.64a26.52,26.52,0,0,0,6.23-10.22l12.83-31.19h9.7L171.84,563Z"/><path d="M290.67,643v-6.58l6.93-1.74q13.51-3.81,13.51-17.32V550.5a80.92,80.92,0,0,1-23,12.64,84.9,84.9,0,0,1-28.93,4.68q-29.79,0-49-22.18t-19.23-64.09q0-28.76,9.71-48.84T227.27,402q17-10.56,39.15-10.57a82.42,82.42,0,0,1,50.93,17l35.68-17,4.85,3.47-1,46.77V618.4q0,13.51,12.12,17l3.81,1V643Zm-10.05-91.81q14.2,0,29.45-10.74V415.73a71.15,71.15,0,0,0-13.85-5.89,51.55,51.55,0,0,0-14.9-2.08q-19.06,0-30,17t-10.91,56.12q0,38.11,10.56,54.22T280.62,551.19Z"/><path d="M444.84,567.82a59,59,0,0,1-24.59-5,37.37,37.37,0,0,1-17.5-16.63q-6.4-11.61-6.06-30.67l1-86.95q0-7.64-2.43-11.09t-8.66-4.85l-4.15-1.39V405l59.24-11.43,3.81,3.82-1.73,48.84v78.65q0,11.77,6.4,17.15t16.12,5.37a53,53,0,0,0,18.18-3,76.12,76.12,0,0,0,16.81-8.83l1-106.71c0-5.31-.76-9-2.25-11.08s-4.33-3.7-8.49-4.86l-3.81-1v-6.24l57.85-12.13,3.81,3.82-1,48.84V537c0,4.86.63,8.72,1.9,11.61s4.1,5,8.49,6.41l4.5,1.39V563l-58.55,3.46-3.12-21.82A116.22,116.22,0,0,1,476,561.24,71.94,71.94,0,0,1,444.84,567.82Z"/><path d="M577.88,563v-6.58l5.2-1.39q6.93-2.09,9.35-6.24t2.77-11.08V454q0-9.18-.35-18.88,0-6.93-2.59-10.91t-9.53-5.38l-4.85-1v-6.24l60.63-20.1,4.16,3.82-1,49.19V538q0,6.93,2.6,11.08t9.18,6.24l3.81,1V563Zm39.84-190.55a27.69,27.69,0,0,1-19.4-7.28,23.77,23.77,0,0,1-8-18.36q0-11.43,8-18.53a30,30,0,0,1,38.8,0q8,7.11,8,18.53a23.77,23.77,0,0,1-8,18.36A27.67,27.67,0,0,1,617.72,372.42Z"/><path d="M737.59,567.82q-21.48,0-33.78-10.57t-12.3-34.47q0-8.31.17-15.76t.18-17.5V407.41h-24.6v-7.62l9.35-1.39a46.19,46.19,0,0,0,17.15-6.24,48.58,48.58,0,0,0,13-12.47l22.51-31.18h10.4l-1,48.16h39.5v10.74H738.28V525.55q0,12.48,5.37,18.71A16.89,16.89,0,0,0,757,550.5a23.89,23.89,0,0,0,12.47-3.3,56.79,56.79,0,0,0,11.09-8.83l4.5,5.19a46.24,46.24,0,0,1-18.36,17.85Q754.92,567.81,737.59,567.82Z"/><path d="M796.83,563v-6.58L802,555q6.93-2.09,9.36-6.24t2.77-11.08V454q0-9.18-.35-18.88,0-6.93-2.59-10.91t-9.53-5.38l-4.85-1v-6.24l60.63-20.1,4.15,3.82-1,49.19V538q0,6.93,2.6,11.08t9.17,6.24l3.82,1V563Zm39.84-190.55a27.69,27.69,0,0,1-19.4-7.28,23.77,23.77,0,0,1-8-18.36q0-11.43,8-18.53a30,30,0,0,1,38.8,0q8,7.11,8,18.53a23.8,23.8,0,0,1-8,18.36A27.71,27.71,0,0,1,836.67,372.42Z"/><path d="M978,391.47q21.83,0,37.41,9a62.16,62.16,0,0,1,24.08,24.77Q1048,441,1048,461.46q0,4.5-.35,8.48a37.25,37.25,0,0,1-1.38,7.46H942q.33,35.69,13.33,51.27t37.94,15.59q17.32,0,28.06-5.72a69.38,69.38,0,0,0,19.75-16.11l5.54,5.2a75.78,75.78,0,0,1-28.23,29.62q-17.85,10.57-42.44,10.57t-43.31-10.4a73.2,73.2,0,0,1-29.28-30q-10.56-19.58-10.56-47,0-28.39,12.3-48.16A84.43,84.43,0,0,1,937,402,85.29,85.29,0,0,1,978,391.47Zm-1.73,10a28,28,0,0,0-17.5,5.71Q951.34,413,947,427.33t-5,40.36h62q3.81-35-2.77-50.58T976.29,401.52Z"/><path d="M1125.6,567.82a114.06,114.06,0,0,1-30-3.64A118.58,118.58,0,0,1,1070.17,554V513.08h9.35l10.4,19.74q6.57,12.82,15.07,19.06t21.65,6.23q16.27,0,26-7.09a22.59,22.59,0,0,0,9.69-19.23q0-11.09-7.27-18t-26-12.82l-15.24-4.85q-20.44-6.23-32.39-18.88t-12-31.7a49,49,0,0,1,8-27.19q8-12.3,23.22-19.58t37.07-7.28a98.09,98.09,0,0,1,26.16,3.3,121.55,121.55,0,0,1,23.38,9.18L1185.19,441h-9l-10.74-19.75q-5.55-11.08-11.26-15.42t-17.49-4.33a38.49,38.49,0,0,0-22,6.41,20.33,20.33,0,0,0-9.53,17.84,21.85,21.85,0,0,0,8,17.5q8,6.75,25.64,12.65l14.89,4.5q25.29,8,36,21.13t10.74,31.53q0,24.6-19.57,39.67T1125.6,567.82Z"/><path class="cls-1" d="M1090,185.12A94.87,94.87,0,0,1,995.15,280H910V214.85A94.87,94.87,0,0,1,1004.88,120H1090Z"/></svg>